<?xml version="1.0" encoding="UTF-8"?>
<!DOCTYPE svg PUBLIC "-//W3C//DTD SVG 1.1//EN" "http://www.w3.org/Graphics/SVG/1.1/DTD/svg11.dtd">
<!-- Creator: CorelDRAW 2019 (64-Bit) -->
<svg xmlns="http://www.w3.org/2000/svg" xml:space="preserve" width="2.70657in" height="1.06888in" version="1.1" style="shape-rendering:geometricPrecision; text-rendering:geometricPrecision; image-rendering:optimizeQuality; fill-rule:evenodd; clip-rule:evenodd"
viewBox="0 0 1014.71 400.73"
 xmlns:xlink="http://www.w3.org/1999/xlink"
 xmlns:xodm="http://www.corel.com/coreldraw/odm/2003">
 <defs>
  <style type="text/css">
   <![CDATA[
    .fil2 {fill:#2E3A6E}
    .fil1 {fill:white}
    .fil3 {fill:white}
    .fil0 {fill:#2E3A6E;fill-rule:nonzero}
   ]]>
  </style>
 </defs>
 <g id="Layer_x0020_1">
  <metadata id="CorelCorpID_0Corel-Layer"/>
  <path class="fil0" d="M407.63 152.34c2.09,0.78 2.25,1.72 2.25,4.16l0 16.62c0,9.92 3.3,14.57 13.41,14.57 4.45,0 8.03,-1.55 10.17,-4.1 2.25,-2.71 2.53,-5.71 2.53,-9.81l0 -17.06c0,-2.6 0.22,-3.93 2.2,-4.38l0 -6.65 -12.37 0 0 6.65c1.65,0.44 2.14,1.5 2.14,3.82l0 17.29c0,3.93 -1.43,5.93 -4.45,5.93 -3.24,0 -4.29,-2.11 -4.29,-6.1l0 -15.96c0,-2.77 0.11,-4.32 2.09,-4.99l0 -6.65 -13.69 0 0 6.65zm35.84 34.52l12.81 0 0 -6.93c-1.82,-0.28 -2.14,-1.44 -2.14,-4.15l0 -12.3 10.28 23.38 8.58 0 0 -29.92c0,-2.66 0.06,-3.99 2.2,-4.6l0 -6.65 -12.97 0 0 6.65c1.82,0.33 2.2,1.55 2.2,4.16l0 12.35 -10.28 -23.16 -10.66 0 0 6.65c1.76,0.39 2.09,1.44 2.09,3.55l0 19.89c0,2.66 -0.22,3.93 -2.09,4.15l0 6.93zm48.59 -11.19l0 -19.06c0,-2.6 0.06,-3.82 2.03,-4.27l0 -6.65 -13.58 0 0 6.65c1.98,0.44 2.09,1.61 2.09,4.27l0 19.06c0,2.66 -0.11,3.82 -2.09,4.27l0 6.93 13.58 0 0 -6.93c-1.98,-0.44 -2.03,-1.61 -2.03,-4.27zm14.73 11.19l14.07 0 5.99 -30.92c0.39,-1.88 0.99,-3.05 2.31,-3.6l0 -6.65 -12.54 0 0 6.65c1.6,0.28 2.14,0.94 2.14,2.27 0,0.39 0,0.94 -0.11,1.55l-4.07 22.88 -4.45 -23.16c-0.11,-0.44 -0.17,-0.83 -0.17,-1.33 0,-1.27 0.61,-1.88 2.09,-2.22l0 -6.65 -14.13 0 0 6.65c1.76,0.61 2.14,1.72 2.53,3.66l6.32 30.86zm25.73 0l28.75 0 0 -13.8 -8.85 0 0 1.5c0,3.21 -0.88,4.43 -4.23,4.43l-4.12 0 0 -9.92 11.16 0 0 -6.93 -11.16 0 0 -8.59 3.46 0c3.57,0 4.89,1 4.89,4.27 0,0.17 0,0.28 0,0.44l8.85 0 0 -12.58 -28.75 0 0 6.65c1.98,0.44 2.09,1.61 2.09,4.27l0 19.06c0,2.66 -0.11,3.82 -2.09,4.27l0 6.93zm45.41 -11.19l0 -5.21 2.91 0c4.01,0 4.89,1.22 4.89,5.1l0 5.26c0,2.27 0,4.27 0.83,6.04l10.12 0 0 -6.93c-1.54,-0.33 -1.76,-1.61 -1.76,-4.15l0 -2.22c0,-3.82 -1.15,-5.54 -5.22,-6.48 4.07,-1.11 6.21,-4.43 6.21,-9.53 0,-8.53 -4.4,-11.86 -13.47,-11.86l-16.05 0 0 6.65c1.98,0.44 2.09,1.61 2.09,4.27l0 19.06c0,2.66 -0.11,3.82 -2.09,4.27l0 6.93 13.58 0 0 -6.93c-1.98,-0.44 -2.03,-1.61 -2.03,-4.27zm0 -12.47l0 -9.81 3.79 0c3.35,0 4.89,1.61 4.89,4.99 0,3.43 -1.59,4.82 -5,4.82l-3.68 0zm24.24 19.72c3.79,3.1 8.63,4.76 13.96,4.76 8.58,0 13.74,-5.21 13.74,-12.91 0,-7.26 -3.41,-9.97 -10.99,-12.58 -5,-1.72 -7.59,-2.77 -7.59,-5.48 0,-2.22 1.65,-3.82 4.45,-3.82 2.86,0 4.4,1.88 4.4,5.43 0,0.22 0,0.5 0,0.72l9.02 0 0 -9.7c-4.07,-3.05 -8.47,-4.49 -13.36,-4.49 -8.47,0 -13.8,4.54 -13.8,11.97 0,3.77 1.21,6.32 3.96,8.48 2.58,1.99 5.66,2.83 8.79,4.04 3.79,1.44 5.66,2.88 5.66,5.6 0,2.6 -1.76,4.32 -4.29,4.32 -3.3,0 -4.78,-1.88 -4.78,-5.82 0,-0.28 0,-0.55 0,-0.83l-9.18 0 0 10.31zm44.64 -7.26l0 -19.06c0,-2.6 0.06,-3.82 2.03,-4.27l0 -6.65 -13.58 0 0 6.65c1.98,0.44 2.09,1.61 2.09,4.27l0 19.06c0,2.66 -0.11,3.82 -2.09,4.27l0 6.93 13.58 0 0 -6.93c-1.98,-0.44 -2.03,-1.61 -2.03,-4.27zm17.87 -22.16l0 22.16c0,2.66 -0.11,3.82 -2.09,4.27l0 6.93 13.58 0 0 -6.93c-1.98,-0.44 -2.03,-1.61 -2.03,-4.27l0 -22.16c2.75,0.05 3.79,1.44 3.79,4.71l0 4.16 7.53 0 0 -16.68 -32.1 0 0 16.68 7.59 0 0 -4.16c0,-3.27 1.04,-4.65 3.74,-4.71zm30.95 33.35l13.63 0 0 -6.93c-1.87,-0.28 -2.09,-1.44 -2.09,-3.99l0 -5.37 7.86 -15.84c0.66,-1.28 1.32,-2.11 2.2,-2.38l0 -6.65 -10.5 0 0 5.04c0,1.66 -0.16,3.16 -0.88,4.6l-2.7 5.49 -2.75 -5.71c-0.71,-1.55 -0.77,-2.94 -0.77,-4.38 0,-0.17 0,-0.39 0,-0.55l0 -4.49 -11.99 0 0 6.65c0.88,0.22 1.54,1.05 2.2,2.44l7.92 16.29 0 4.99c0,2.44 -0.55,3.55 -2.14,3.88l0 6.93z"/>
  <path class="fil0" d="M425.07 98.11l0 -2.52 7.56 0c17.47,0 21.79,-6.93 21.79,-24.67 0,-15.4 -6.12,-21.52 -21.79,-21.52l-26.47 0 0 10.8c3.24,0.72 3.42,2.61 3.42,6.93l0 30.97c0,4.32 -0.18,6.21 -3.42,6.93l0 11.25 22.24 0 0 -11.25c-3.24,-0.72 -3.33,-2.61 -3.33,-6.93zm0 -16.93l0 -17.56 5.85 0c6.12,0 8.19,1.89 8.19,9 0,7.2 -2.25,8.55 -8.28,8.55l-5.76 0zm49.88 6.39l4.5 -25.57 4.59 25.57 -9.09 0zm-19.36 28.72l20.53 0 0 -11.25c-2.52,-0.09 -3.6,-1.17 -3.6,-3.33 0,-0.81 0.09,-1.44 0.18,-2.07l0.54 -2.52 12.97 0 0.54 2.79c0.18,1.17 0.18,1.89 0.18,1.98 0,1.71 -1.17,2.97 -3.33,3.15l0 11.25 22.78 0 0 -11.25c-2.43,-0.72 -3.15,-2.52 -3.87,-5.94l-10.44 -49.7 -22.96 0 -9.45 48.62c-0.81,4.05 -1.44,6.21 -4.05,7.02l0 11.25zm56.18 0l20.98 0 0 -11.25c-2.97,-0.45 -3.51,-2.34 -3.51,-6.75l0 -19.99 16.84 38 14.04 0 0 -48.62c0,-4.32 0.09,-6.48 3.6,-7.47l0 -10.8 -21.25 0 0 10.8c2.97,0.54 3.6,2.52 3.6,6.75l0 20.08 -16.84 -37.63 -17.47 0 0 10.8c2.88,0.63 3.42,2.34 3.42,5.76l0 32.32c0,4.32 -0.36,6.39 -3.42,6.75l0 11.25zm61.04 -19.9l24.13 0 0 -10.8 -24.13 0 0 10.8zm50.69 -8.82l4.5 -25.57 4.59 25.57 -9.09 0zm-19.36 28.72l20.53 0 0 -11.25c-2.52,-0.09 -3.6,-1.17 -3.6,-3.33 0,-0.81 0.09,-1.44 0.18,-2.07l0.54 -2.52 12.97 0 0.54 2.79c0.18,1.17 0.18,1.89 0.18,1.98 0,1.71 -1.17,2.97 -3.33,3.15l0 11.25 22.78 0 0 -11.25c-2.43,-0.72 -3.15,-2.52 -3.87,-5.94l-10.44 -49.7 -22.96 0 -9.45 48.62c-0.81,4.05 -1.44,6.21 -4.05,7.02l0 11.25zm69.42 -54.2l0 36.01c0,4.32 -0.18,6.21 -3.42,6.93l0 11.25 22.24 0 0 -11.25c-3.24,-0.72 -3.33,-2.61 -3.33,-6.93l0 -36.01c4.5,0.09 6.21,2.34 6.21,7.65l0 6.75 12.33 0 0 -27.1 -52.58 0 0 27.1 12.43 0 0 -6.75c0,-5.31 1.71,-7.56 6.12,-7.65zm86.34 54.2l0 -30.34 -13.41 0 0 7.38c0,7.11 -0.63,10.26 -7.83,10.26l-5.04 0 0 -36.46c0,-4.23 0.09,-6.21 3.33,-6.93l0 -10.8 -22.24 0 0 10.8c3.24,0.72 3.42,2.61 3.42,6.93l0 30.97c0,4.32 -0.18,6.21 -3.42,6.93l0 11.25 45.2 0zm23.59 -28.72l4.5 -25.57 4.59 25.57 -9.09 0zm-19.36 28.72l20.53 0 0 -11.25c-2.52,-0.09 -3.6,-1.17 -3.6,-3.33 0,-0.81 0.09,-1.44 0.18,-2.07l0.54 -2.52 12.97 0 0.54 2.79c0.18,1.17 0.18,1.89 0.18,1.98 0,1.71 -1.17,2.97 -3.33,3.15l0 11.25 22.78 0 0 -11.25c-2.43,-0.72 -3.15,-2.52 -3.87,-5.94l-10.44 -49.7 -22.96 0 -9.45 48.62c-0.81,4.05 -1.44,6.21 -4.05,7.02l0 11.25zm56.18 0l20.98 0 0 -11.25c-2.97,-0.45 -3.51,-2.34 -3.51,-6.75l0 -19.99 16.84 38 14.04 0 0 -48.62c0,-4.32 0.09,-6.48 3.6,-7.47l0 -10.8 -21.25 0 0 10.8c2.97,0.54 3.6,2.52 3.6,6.75l0 20.08 -16.84 -37.63 -17.47 0 0 10.8c2.88,0.63 3.42,2.34 3.42,5.76l0 32.32c0,4.32 -0.36,6.39 -3.42,6.75l0 11.25zm76.98 -54.2l0 36.01c0,4.32 -0.18,6.21 -3.42,6.93l0 11.25 22.24 0 0 -11.25c-3.24,-0.72 -3.33,-2.61 -3.33,-6.93l0 -36.01c4.5,0.09 6.21,2.34 6.21,7.65l0 6.75 12.33 0 0 -27.1 -52.58 0 0 27.1 12.43 0 0 -6.75c0,-5.31 1.71,-7.56 6.12,-7.65zm60.32 36.01l0 -30.97c0,-4.23 0.09,-6.21 3.33,-6.93l0 -10.8 -22.24 0 0 10.8c3.24,0.72 3.42,2.61 3.42,6.93l0 30.97c0,4.32 -0.18,6.21 -3.42,6.93l0 11.25 22.24 0 0 -11.25c-3.24,-0.72 -3.33,-2.61 -3.33,-6.93zm12.97 -26.2l0 21.88c0,7.56 0.18,13.06 3.6,17.38 3.6,4.59 9.81,6.48 18.91,6.48 7.47,0 15.13,-1.8 21.61,-5.13l0 -22.96 -14.58 0 0 4.77c0,6.57 -1.71,9.81 -7.02,9.81 -5.31,0 -7.11,-3.24 -7.11,-9.81l0 -22.96c0,-6.57 1.8,-9.81 7.11,-9.81 4.77,0 7.02,2.97 7.02,9 0,0.45 0,0.9 0,1.35l14.58 0 0 -18.91c-6.93,-3.24 -14.13,-4.95 -21.61,-4.95 -10.08,0 -16.48,2.25 -19.9,7.92 -2.52,4.14 -2.61,9.27 -2.61,15.93z"/>
  <g>
   <path class="fil1" d="M351.89 1.31c51.02,296.46 -170.98,397.88 -171.73,398.05 0,0 -222.2,-101.91 -171.34,-398.06l343.07 0.01z"/>
   <path id="1" class="fil0" d="M179.61 400.55l1.09 -2.37 -0.83 -0.09 0.43 -0.22 1.88 -0.91 3 -1.54 4.02 -2.18 4.96 -2.84 5.8 -3.52 6.55 -4.22 7.21 -4.93 7.78 -5.66 8.27 -6.4 8.66 -7.16 8.96 -7.95 9.17 -8.74 9.29 -9.55 9.31 -10.39 9.25 -11.23 9.1 -12.1 8.86 -12.98 8.53 -13.88 8.11 -14.79 7.6 -15.73 6.99 -16.68 6.3 -17.64 5.52 -18.63 4.65 -19.64 3.69 -20.66 2.63 -21.7 1.49 -22.75 0.26 -23.83 -1.07 -24.92 -2.48 -26.03 -3.99 -27.16 2.57 -0.44 4.01 27.29 2.5 26.17 1.07 25.06 -0.26 23.97 -1.5 22.9 -2.65 21.84 -3.71 20.8 -4.68 19.78 -5.56 18.77 -6.35 17.78 -7.05 16.8 -7.65 15.85 -8.17 14.91 -8.6 13.98 -8.93 13.08 -9.17 12.19 -9.33 11.32 -9.38 10.46 -9.36 9.63 -9.24 8.81 -9.02 8 -8.72 7.22 -8.33 6.45 -7.85 5.7 -7.27 4.97 -6.61 4.26 -5.86 3.56 -5.01 2.87 -4.08 2.21 -3.05 1.57 -1.94 0.94 -0.98 0.41 -0.83 -0.09zm0.83 0.09l-0.43 0.1 -0.4 -0.18 0.83 0.09zm-171.62 -400.63l0 2.6 1.28 -1.08 -3.97 27.13 -2.47 26.01 -1.05 24.9 0.27 23.82 1.51 22.74 2.65 21.69 3.7 20.65 4.66 19.63 5.53 18.63 6.31 17.65 7 16.68 7.6 15.73 8.11 14.8 8.53 13.88 8.86 12.99 9.1 12.11 9.25 11.24 9.31 10.4 9.27 9.57 9.15 8.75 8.94 7.96 8.63 7.17 8.24 6.41 7.76 5.66 7.18 4.93 6.52 4.22 5.76 3.52 4.91 2.84 3.97 2.18 2.94 1.54 1.83 0.9 0.61 0.29 -1.09 2.37 -0.67 -0.32 -1.87 -0.93 -2.99 -1.56 -4.02 -2.21 -4.96 -2.87 -5.81 -3.56 -6.57 -4.26 -7.24 -4.98 -7.82 -5.71 -8.31 -6.46 -8.7 -7.23 -9.01 -8.01 -9.22 -8.82 -9.34 -9.64 -9.37 -10.48 -9.32 -11.33 -9.17 -12.2 -8.93 -13.09 -8.6 -13.99 -8.17 -14.92 -7.66 -15.85 -7.06 -16.81 -6.36 -17.78 -5.57 -18.77 -4.69 -19.78 -3.73 -20.79 -2.66 -21.83 -1.51 -22.89 -0.27 -23.96 1.06 -25.04 2.48 -26.14 3.99 -27.26 1.28 -1.08zm-1.28 1.08l0.19 -1.08 1.1 0 -1.28 1.08zm344.36 1.53l-343.07 -0.01 0 -2.6 343.07 0.01 1.28 1.08 -1.28 1.52zm0 -2.6l1.1 0 0.19 1.08 -1.28 -1.08z"/>
  </g>
  <path class="fil2" d="M66.1 20.38c22.26,0 40.31,17.22 40.31,38.46 0,21.25 -18.05,38.46 -40.31,38.46 -22.27,0 -40.31,-17.22 -40.31,-38.46 0,-21.25 18.04,-38.46 40.31,-38.46z"/>
  <path class="fil2" d="M294.6 20.38c22.26,0 40.31,17.22 40.31,38.46 0,21.25 -18.05,38.46 -40.31,38.46 -22.26,0 -40.32,-17.22 -40.32,-38.46 0,-21.25 18.05,-38.46 40.32,-38.46z"/>
  <path class="fil2" d="M180.37 20.38c22.26,0 40.31,17.22 40.31,38.46 0,21.25 -18.05,38.46 -40.31,38.46 -22.27,0 -40.31,-17.22 -40.31,-38.46 0,-21.25 18.05,-38.46 40.31,-38.46z"/>
  <path class="fil2" d="M181.59 282.7c22.31,0 40.39,17.26 40.39,38.55 0,21.29 -18.08,38.55 -40.39,38.55 -22.32,0 -40.4,-17.26 -40.4,-38.55 0,-21.29 18.09,-38.55 40.4,-38.55z"/>
  <path class="fil2" d="M180.38 115.74c6.63,99.53 48.37,168.62 89.16,213.59l0.02 0c40.79,-44.98 81.59,-114.08 88.22,-213.62l-89.14 -0 0 0 -177.39 -0 0 0 -88.27 -0.01c6.63,99.53 47.45,168.59 88.23,213.57l0.03 0c40.79,-44.98 82.52,-113.99 89.15,-213.54z"/>
  <path class="fil3" d="M356.5 130.46l0 0.24c-0.72,6.88 -1.6,13.6 -2.63,20.18 -13.8,1.06 -27.6,9.97 -41.4,9.97 -14.67,0 -29.35,-10.07 -44.03,-10.07 -14.68,0 -29.36,10.07 -44.03,10.07 -13.36,0 -26.72,-8.34 -40.07,-9.84 -1.07,-6.68 -1.97,-13.52 -2.7,-20.51 14.26,0.54 28.51,10.05 42.77,10.05 14.68,0 29.35,-10.07 44.03,-10.07 14.68,0 29.35,10.07 44.03,10.07 14.68,0 29.35,-10.07 44.03,-10.07zm-180.08 20.54c-13.36,1.5 -26.71,9.84 -40.06,9.84 -14.68,0 -29.35,-10.07 -44.03,-10.07 -14.68,0 -29.36,10.07 -44.03,10.07 -13.8,0 -27.61,-8.91 -41.41,-9.97 -1.03,-6.54 -1.9,-13.23 -2.62,-20.07l0 -0.34c14.67,0 29.35,10.07 44.03,10.07 14.67,0 29.35,-10.07 44.03,-10.07 14.68,0 29.35,10.07 44.03,10.07 14.25,0 28.51,-9.5 42.76,-10.05 -0.73,7 -1.63,13.83 -2.7,20.52zm11.88 20.94c1.64,7.44 3.47,14.66 5.49,21.68 10.21,2.97 20.41,7.84 30.62,7.84 14.68,0 29.35,-10.08 44.03,-10.08 14.68,0 29.35,10.08 44.03,10.08 10.74,0 21.47,-5.39 32.2,-8.29 1.96,-6.97 3.74,-14.13 5.33,-21.51 -12.51,2.16 -25.02,9.47 -37.53,9.47 -14.67,0 -29.35,-10.07 -44.03,-10.07 -14.68,0 -29.36,10.07 -44.03,10.07 -12.04,0 -24.07,-6.77 -36.11,-9.21zm12.85 44.38c2.95,8.12 6.14,15.94 9.52,23.44 4.58,1.35 9.16,2.33 13.74,2.33 14.68,0 29.35,-10.07 44.03,-10.07 14.68,0 29.35,10.07 44.03,10.07 5.24,0 10.48,-1.28 15.72,-2.93 3.32,-7.51 6.44,-15.33 9.32,-23.45 -8.35,2.81 -16.7,6.07 -25.04,6.07 -14.67,0 -29.35,-10.07 -44.03,-10.07 -14.68,0 -29.36,10.07 -44.03,10.07 -7.75,0 -15.5,-2.81 -23.25,-5.46zm20.7 45.99c3.66,6.73 7.46,13.18 11.37,19.36 11.74,-2.58 23.48,-9.02 35.21,-9.02 12.33,0 24.66,7.11 36.99,9.38 3.98,-6.35 7.86,-12.98 11.57,-19.92 -1.51,0.19 -3.02,0.3 -4.53,0.3 -14.67,0 -29.35,-10.07 -44.03,-10.07 -14.68,0 -29.36,10.07 -44.03,10.07 -0.85,0 -1.7,-0.03 -2.55,-0.1zm22.81 36.29c4.11,5.71 8.28,11.14 12.49,16.32 3.76,-0.99 7.53,-1.65 11.29,-1.65 4.36,0 8.71,0.89 13.07,2.14 4.18,-5.15 8.33,-10.55 12.4,-16.23 -8.49,-2.84 -16.98,-6.21 -25.47,-6.21 -7.93,0 -15.85,2.94 -23.78,5.64zm-233.91 -126.93c1.59,7.37 3.38,14.54 5.33,21.51 10.74,2.89 21.47,8.29 32.21,8.29 14.67,0 29.35,-10.08 44.03,-10.08 14.68,0 29.35,10.08 44.03,10.08 10.21,0 20.41,-4.87 30.61,-7.84 2.02,-7.02 3.85,-14.24 5.49,-21.68 -12.04,2.44 -24.07,9.21 -36.1,9.21 -14.68,0 -29.35,-10.07 -44.03,-10.07 -14.68,0 -29.36,10.07 -44.03,10.07 -12.51,0 -25.03,-7.32 -37.54,-9.48zm12.5 44.03c2.89,8.13 6.01,15.94 9.33,23.45 5.24,1.65 10.48,2.93 15.71,2.93 14.67,0 29.35,-10.07 44.03,-10.07 14.68,0 29.35,10.07 44.03,10.07 4.57,0 9.15,-0.98 13.72,-2.32 3.39,-7.51 6.57,-15.33 9.52,-23.45 -7.75,2.65 -15.5,5.46 -23.24,5.46 -14.68,0 -29.35,-10.07 -44.03,-10.07 -14.68,0 -29.36,10.07 -44.03,10.07 -8.35,0 -16.7,-3.26 -25.04,-6.07zm20.53 46.4c3.72,6.94 7.59,13.57 11.58,19.92 12.32,-2.28 24.64,-9.38 36.97,-9.38 11.73,0 23.46,6.43 35.18,9.02 3.91,-6.18 7.72,-12.62 11.38,-19.35 -0.84,0.06 -1.69,0.09 -2.53,0.09 -14.68,0 -29.35,-10.07 -44.03,-10.07 -14.68,0 -29.36,10.07 -44.03,10.07 -1.5,0 -3.01,-0.11 -4.52,-0.3zm23.09 37.06c4.08,5.68 8.23,11.09 12.41,16.23 4.35,-1.25 8.69,-2.13 13.04,-2.13 3.75,0 7.5,0.66 11.25,1.64 4.21,-5.17 8.39,-10.61 12.5,-16.32 -7.92,-2.7 -15.83,-5.63 -23.75,-5.63 -8.48,0 -16.97,3.36 -25.45,6.21z"/>
  <g>
   <path class="fil0" d="M269.53 328.89l0 2.5 -0.98 -0.43 -3.84 -4.3 -3.84 -4.45 -3.83 -4.59 -3.82 -4.74 -3.79 -4.88 -3.77 -5.03 -3.73 -5.18 -3.69 -5.33 -3.65 -5.48 -3.59 -5.63 -3.53 -5.78 -3.46 -5.94 -3.39 -6.09 -3.31 -6.25 -3.22 -6.41 -3.13 -6.57 -3.03 -6.73 -2.92 -6.89 -2.81 -7.05 -2.68 -7.22 -2.56 -7.38 -2.43 -7.55 -2.28 -7.72 -2.14 -7.88 -1.99 -8.05 -1.83 -8.22 -1.66 -8.4 -1.48 -8.57 -1.31 -8.74 -1.12 -8.92 -0.93 -9.09 -0.72 -9.27 2.59 -0.16 0.72 9.21 0.92 9.04 1.11 8.86 1.3 8.69 1.48 8.51 1.65 8.34 1.81 8.17 1.97 8 2.13 7.83 2.27 7.66 2.41 7.5 2.54 7.33 2.67 7.17 2.79 7 2.9 6.84 3.01 6.68 3.11 6.52 3.2 6.36 3.29 6.21 3.36 6.05 3.44 5.9 3.51 5.74 3.56 5.59 3.62 5.44 3.67 5.29 3.71 5.14 3.74 4.99 3.77 4.85 3.79 4.7 3.8 4.56 3.81 4.41 3.81 4.27 -0.98 -0.43zm0 2.5l-0.59 0 -0.39 -0.43 0.98 0.43zm0.02 0l-0.02 0 0 -2.5 0.02 0 0.98 2.07 -0.98 0.43zm0.98 -0.43l-0.39 0.43 -0.59 0 0.98 -0.43zm87.24 -213.2l0 -2.5 1.3 1.33 -0.72 9.27 -0.92 9.1 -1.1 8.92 -1.29 8.74 -1.46 8.57 -1.63 8.4 -1.8 8.23 -1.95 8.05 -2.1 7.88 -2.25 7.72 -2.39 7.55 -2.52 7.38 -2.65 7.22 -2.76 7.06 -2.88 6.89 -2.98 6.73 -3.08 6.57 -3.18 6.41 -3.27 6.26 -3.35 6.1 -3.42 5.94 -3.49 5.78 -3.55 5.63 -3.61 5.48 -3.66 5.33 -3.71 5.18 -3.74 5.03 -3.77 4.88 -3.8 4.74 -3.82 4.59 -3.83 4.45 -3.84 4.3 -1.96 -1.64 3.81 -4.27 3.8 -4.41 3.79 -4.56 3.77 -4.7 3.75 -4.85 3.71 -4.99 3.68 -5.14 3.64 -5.29 3.59 -5.44 3.53 -5.59 3.47 -5.74 3.4 -5.9 3.32 -6.05 3.24 -6.21 3.16 -6.36 3.06 -6.52 2.96 -6.68 2.86 -6.84 2.75 -7.01 2.62 -7.17 2.5 -7.33 2.37 -7.5 2.23 -7.66 2.09 -7.83 1.94 -8 1.79 -8.17 1.62 -8.34 1.46 -8.52 1.28 -8.69 1.1 -8.86 0.91 -9.04 0.72 -9.22 1.3 1.33zm0 -2.5l1.39 0 -0.09 1.33 -1.3 -1.33zm-89.15 0l89.15 0 0 2.5 -89.15 0 -1.3 -1.25 1.3 -1.25zm-1.3 1.25l0 -1.25 1.3 0 -1.3 1.25zm0 0.01l0 -0.01 2.6 0 0 0.01 -1.3 1.25 -1.3 -1.25zm2.6 0l0 1.25 -1.3 0 1.3 -1.25zm-178.69 -1.26l177.39 0.01 0 2.5 -177.39 -0.01 -1.3 -1.25 1.3 -1.25zm-1.3 1.25l0 -1.25 1.3 0 -1.3 1.25zm0 0.01l0 -0.01 2.6 0 0 0.01 -1.3 1.25 -1.3 -1.25zm2.6 0l0 1.25 -1.3 0 1.3 -1.25zm-89.58 -1.26l88.28 0.01 0 2.5 -88.28 -0.01 -1.3 -1.17 1.3 -1.33zm-1.3 1.33l-0.09 -1.33 1.39 0 -1.3 1.33zm89.53 212.24l0 2.5 -0.98 -0.43 -3.84 -4.3 -3.83 -4.45 -3.82 -4.59 -3.8 -4.74 -3.77 -4.88 -3.74 -5.03 -3.7 -5.18 -3.66 -5.33 -3.61 -5.48 -3.56 -5.63 -3.49 -5.78 -3.42 -5.94 -3.35 -6.09 -3.27 -6.25 -3.18 -6.41 -3.08 -6.57 -2.98 -6.73 -2.88 -6.89 -2.76 -7.05 -2.65 -7.22 -2.52 -7.38 -2.39 -7.55 -2.25 -7.72 -2.1 -7.88 -1.95 -8.05 -1.8 -8.22 -1.63 -8.39 -1.46 -8.57 -1.29 -8.74 -1.11 -8.92 -0.92 -9.09 -0.72 -9.27 2.59 -0.16 0.72 9.22 0.91 9.04 1.1 8.86 1.28 8.68 1.46 8.51 1.62 8.34 1.79 8.17 1.94 8 2.09 7.83 2.23 7.66 2.37 7.49 2.5 7.33 2.63 7.17 2.74 7 2.86 6.84 2.96 6.68 3.06 6.52 3.16 6.36 3.24 6.21 3.32 6.05 3.4 5.9 3.47 5.74 3.53 5.59 3.59 5.44 3.64 5.29 3.68 5.14 3.72 4.99 3.75 4.85 3.77 4.7 3.79 4.55 3.8 4.41 3.81 4.27 -0.98 -0.43zm0 2.5l-0.59 0 -0.39 -0.43 0.98 0.43zm0.02 0l-0.02 0 0 -2.5 0.02 0 0.98 2.07 -0.98 0.43zm0.98 -0.43l-0.39 0.43 -0.59 0 0.98 -0.43zm86.87 -214.43l2.59 0.16 -0.72 9.27 -0.93 9.09 -1.12 8.92 -1.3 8.74 -1.48 8.57 -1.66 8.39 -1.82 8.22 -1.99 8.05 -2.14 7.88 -2.28 7.71 -2.43 7.55 -2.56 7.38 -2.69 7.21 -2.81 7.05 -2.92 6.89 -3.03 6.73 -3.13 6.57 -3.22 6.41 -3.31 6.25 -3.39 6.09 -3.46 5.94 -3.53 5.78 -3.59 5.63 -3.64 5.48 -3.69 5.33 -3.73 5.18 -3.77 5.03 -3.79 4.88 -3.82 4.73 -3.83 4.59 -3.84 4.45 -3.84 4.3 -1.96 -1.64 3.81 -4.27 3.81 -4.41 3.8 -4.56 3.79 -4.7 3.77 -4.84 3.74 -4.99 3.71 -5.14 3.67 -5.29 3.62 -5.44 3.57 -5.59 3.5 -5.74 3.44 -5.89 3.36 -6.05 3.29 -6.2 3.2 -6.36 3.11 -6.52 3.01 -6.68 2.9 -6.84 2.79 -7 2.67 -7.16 2.54 -7.33 2.41 -7.49 2.27 -7.66 2.12 -7.83 1.97 -8 1.81 -8.17 1.65 -8.34 1.48 -8.51 1.3 -8.68 1.11 -8.86 0.92 -9.04 0.72 -9.21z"/>
  </g>
 </g>
</svg>
